<svg xmlns="http://www.w3.org/2000/svg" width="420" height="277"><rect width="100%" height="100%" fill="none"/><g fill="#fff"><path d="M249.375 156.186c-10.5 0-19.688 6.562-24.938 15.75H69.562c-26.25 0-47.25-22.312-47.25-48.562s21-48.562 47.25-48.562h22.312c0-5.25 2.625-10.5 3.938-15.75 1.312-1.312 1.312-3.938 2.625-5.25C108.937 34.124 129.937 21 153.562 21c21 0 39.375 10.5 51.188 26.25 6.562-2.625 13.125-5.25 21-6.562C211.312 15.75 185.062 0 153.562 0c-35.438 0-65.625 22.313-78.75 53.813h-5.25C31.5 53.81 0 85.31 0 124.686s31.5 69.562 69.562 69.562H225.75c3.938 9.188 13.125 15.75 24.938 15.75 14.438 0 26.25-11.812 26.25-27.562s-11.813-26.25-27.563-26.25z"/><path d="M336 102.373c-15.75-31.5-48.562-53.812-85.312-53.812-45.938 0-84 32.815-93.188 76.128-22.312 2.625-42 14.437-53.812 31.5h114.188c7.875-10.5 19.688-15.75 32.812-15.75 23.625 0 42 19.688 42 43.312s-19.688 43.31-42 43.31c-13.125 0-24.938-6.56-32.812-15.75H90.562c5.25 36.75 36.75 65.626 73.5 65.626h170.625c47.25 0 85.312-38.062 85.312-86.625s-38.064-86.622-84-87.935z"/></g></svg>
